<svg width="147" height="60" viewBox="0 0 147 60" fill="none" xmlns="http://www.w3.org/2000/svg">
<path d="M20.4644 16.1282C19.9928 15.2594 19.3102 14.6017 18.4166 14.1549C17.5478 13.6832 16.5177 13.4474 15.3262 13.4474C13.266 13.4474 11.6154 14.13 10.3743 15.4953C9.13318 16.8356 8.51263 18.6352 8.51263 20.894C8.51263 23.3017 9.158 25.1882 10.4487 26.5534C11.7643 27.8938 13.5639 28.564 15.8475 28.564C17.4113 28.564 18.7269 28.1668 19.7942 27.3725C20.8864 26.5782 21.6807 25.4364 22.1771 23.9471H14.0976V19.2558H27.9482V25.1758C27.4766 26.7644 26.6699 28.2413 25.5281 29.6065C24.4111 30.9717 22.9838 32.0763 21.2463 32.9202C19.5087 33.7642 17.5478 34.1862 15.3635 34.1862C12.782 34.1862 10.4736 33.6277 8.43816 32.5107C6.42759 31.3689 4.85139 29.7927 3.70959 27.7821C2.5926 25.7715 2.03411 23.4755 2.03411 20.894C2.03411 18.3125 2.5926 16.0165 3.70959 14.0059C4.85139 11.9705 6.42759 10.3943 8.43816 9.27736C10.4487 8.13555 12.7448 7.56464 15.3262 7.56464C18.4538 7.56464 21.0849 8.32171 23.2196 9.83585C25.3791 11.35 26.8064 13.4474 27.5014 16.1282H20.4644ZM34.6769 11.0645C33.5599 11.0645 32.6415 10.7419 31.9216 10.0965C31.2266 9.42629 30.8791 8.60716 30.8791 7.63911C30.8791 6.64623 31.2266 5.82711 31.9216 5.18174C32.6415 4.51155 33.5599 4.17645 34.6769 4.17645C35.769 4.17645 36.6626 4.51155 37.3577 5.18174C38.0775 5.82711 38.4374 6.64623 38.4374 7.63911C38.4374 8.60716 38.0775 9.42629 37.3577 10.0965C36.6626 10.7419 35.769 11.0645 34.6769 11.0645ZM37.8417 13.224V34H31.4749V13.224H37.8417ZM48.8225 16.6867C49.5671 15.5449 50.498 14.6513 51.6149 14.0059C52.7319 13.3357 53.973 13.0006 55.3382 13.0006V19.7398H53.5883C51.9997 19.7398 50.8082 20.0873 50.0139 20.7823C49.2196 21.4525 48.8225 22.644 48.8225 24.3567V34H42.4556V13.224H48.8225V16.6867ZM84.8913 13.0006C87.4727 13.0006 89.5206 13.7825 91.0347 15.3463C92.5736 16.9101 93.3431 19.082 93.3431 21.8621V34H87.0135V22.7184C87.0135 21.378 86.6536 20.3479 85.9338 19.6281C85.2388 18.8834 84.2707 18.5111 83.0296 18.5111C81.7885 18.5111 80.8081 18.8834 80.0882 19.6281C79.3932 20.3479 79.0457 21.378 79.0457 22.7184V34H72.7161V22.7184C72.7161 21.378 72.3562 20.3479 71.6363 19.6281C70.9413 18.8834 69.9733 18.5111 68.7322 18.5111C67.4911 18.5111 66.5106 18.8834 65.7908 19.6281C65.0958 20.3479 64.7483 21.378 64.7483 22.7184V34H58.3814V13.224H64.7483V15.8303C65.3936 14.9616 66.2376 14.279 67.2801 13.7825C68.3226 13.2613 69.5017 13.0006 70.8172 13.0006C72.381 13.0006 73.771 13.3357 74.9873 14.0059C76.2284 14.6761 77.1965 15.6318 77.8915 16.8729C78.6113 15.7311 79.5918 14.8002 80.8329 14.0804C82.074 13.3606 83.4268 13.0006 84.8913 13.0006ZM96.53 23.5748C96.53 21.4401 96.9272 19.566 97.7215 17.9526C98.5406 16.3392 99.6452 15.0981 101.035 14.2293C102.425 13.3606 103.977 12.9262 105.689 12.9262C107.154 12.9262 108.432 13.224 109.524 13.8198C110.641 14.4155 111.498 15.1974 112.093 16.1654V13.224H118.46V34H112.093V31.0586C111.473 32.0267 110.604 32.8085 109.487 33.4043C108.395 34 107.117 34.2979 105.652 34.2979C103.964 34.2979 102.425 33.8635 101.035 32.9947C99.6452 32.1011 98.5406 30.8476 97.7215 29.2342C96.9272 27.5959 96.53 25.7095 96.53 23.5748ZM112.093 23.612C112.093 22.0234 111.647 20.7699 110.753 19.8515C109.884 18.9331 108.817 18.4739 107.551 18.4739C106.285 18.4739 105.205 18.9331 104.312 19.8515C103.443 20.7451 103.009 21.9862 103.009 23.5748C103.009 25.1634 103.443 26.4293 104.312 27.3725C105.205 28.291 106.285 28.7502 107.551 28.7502C108.817 28.7502 109.884 28.291 110.753 27.3725C111.647 26.4541 112.093 25.2006 112.093 23.612ZM135.726 13.0006C138.158 13.0006 140.094 13.7949 141.534 15.3836C142.998 16.9473 143.731 19.1068 143.731 21.8621V34H137.401V22.7184C137.401 21.3284 137.041 20.2486 136.321 19.4792C135.601 18.7097 134.633 18.3249 133.417 18.3249C132.201 18.3249 131.233 18.7097 130.513 19.4792C129.793 20.2486 129.433 21.3284 129.433 22.7184V34H123.066V13.224H129.433V15.9793C130.079 15.0609 130.947 14.341 132.039 13.8198C133.132 13.2737 134.36 13.0006 135.726 13.0006Z" fill="#111111"/>
<path d="M12.4224 47.1513V48.422H10.331V55H8.75672V48.422H6.66524V47.1513H12.4224ZM19.6431 48.422V50.3898H22.2855V51.6379H19.6431V53.7181H22.6229V55H18.0688V47.1401H22.6229V48.422H19.6431ZM28.169 51.0644C28.169 50.2923 28.3414 49.6026 28.6862 48.9954C29.0385 48.3807 29.5146 47.9047 30.1143 47.5674C30.7215 47.2225 31.3999 47.0501 32.1495 47.0501C33.0266 47.0501 33.795 47.275 34.4546 47.7248C35.1143 48.1746 35.5753 48.7968 35.8377 49.5914H34.0274C33.8474 49.2166 33.5926 48.9355 33.2627 48.7481C32.9404 48.5606 32.5656 48.4669 32.1383 48.4669C31.681 48.4669 31.2724 48.5756 30.9126 48.793C30.5603 49.0029 30.2829 49.3028 30.0805 49.6926C29.8856 50.0824 29.7882 50.5397 29.7882 51.0644C29.7882 51.5817 29.8856 52.0389 30.0805 52.4363C30.2829 52.8261 30.5603 53.1297 30.9126 53.3471C31.2724 53.557 31.681 53.6619 32.1383 53.6619C32.5656 53.6619 32.9404 53.5682 33.2627 53.3808C33.5926 53.1859 33.8474 52.901 34.0274 52.5262H35.8377C35.5753 53.3283 35.1143 53.9543 34.4546 54.404C33.8025 54.8463 33.0341 55.0675 32.1495 55.0675C31.3999 55.0675 30.7215 54.8988 30.1143 54.5615C29.5146 54.2166 29.0385 53.7406 28.6862 53.1334C28.3414 52.5262 28.169 51.8365 28.169 51.0644ZM48.1907 47.1513V55H46.6165V51.6604H43.2543V55H41.6801V47.1513H43.2543V50.3785H46.6165V47.1513H48.1907ZM60.9509 55H59.3767L55.8122 49.6139V55H54.238V47.1401H55.8122L59.3767 52.5375V47.1401H60.9509V55ZM70.6476 55.0787C69.913 55.0787 69.2383 54.9063 68.6236 54.5615C68.0089 54.2166 67.5217 53.7406 67.1618 53.1334C66.802 52.5187 66.6221 51.8253 66.6221 51.0532C66.6221 50.2886 66.802 49.6026 67.1618 48.9954C67.5217 48.3807 68.0089 47.901 68.6236 47.5561C69.2383 47.2113 69.913 47.0389 70.6476 47.0389C71.3898 47.0389 72.0645 47.2113 72.6717 47.5561C73.2864 47.901 73.7699 48.3807 74.1222 48.9954C74.482 49.6026 74.6619 50.2886 74.6619 51.0532C74.6619 51.8253 74.482 52.5187 74.1222 53.1334C73.7699 53.7406 73.2864 54.2166 72.6717 54.5615C72.057 54.9063 71.3823 55.0787 70.6476 55.0787ZM70.6476 53.6731C71.1199 53.6731 71.536 53.5682 71.8958 53.3583C72.2556 53.1409 72.5367 52.8336 72.7391 52.4363C72.9415 52.0389 73.0427 51.5779 73.0427 51.0532C73.0427 50.5284 72.9415 50.0712 72.7391 49.6813C72.5367 49.284 72.2556 48.9804 71.8958 48.7705C71.536 48.5606 71.1199 48.4557 70.6476 48.4557C70.1754 48.4557 69.7556 48.5606 69.3883 48.7705C69.0284 48.9804 68.7473 49.284 68.5449 49.6813C68.3425 50.0712 68.2413 50.5284 68.2413 51.0532C68.2413 51.5779 68.3425 52.0389 68.5449 52.4363C68.7473 52.8336 69.0284 53.1409 69.3883 53.3583C69.7556 53.5682 70.1754 53.6731 70.6476 53.6731ZM81.9052 53.7519H84.4914V55H80.3309V47.1513H81.9052V53.7519ZM93.633 55.0787C92.8984 55.0787 92.2237 54.9063 91.609 54.5615C90.9943 54.2166 90.507 53.7406 90.1472 53.1334C89.7874 52.5187 89.6075 51.8253 89.6075 51.0532C89.6075 50.2886 89.7874 49.6026 90.1472 48.9954C90.507 48.3807 90.9943 47.901 91.609 47.5561C92.2237 47.2113 92.8984 47.0389 93.633 47.0389C94.3751 47.0389 95.0498 47.2113 95.657 47.5561C96.2717 47.901 96.7552 48.3807 97.1076 48.9954C97.4674 49.6026 97.6473 50.2886 97.6473 51.0532C97.6473 51.8253 97.4674 52.5187 97.1076 53.1334C96.7552 53.7406 96.2717 54.2166 95.657 54.5615C95.0423 54.9063 94.3676 55.0787 93.633 55.0787ZM93.633 53.6731C94.1053 53.6731 94.5213 53.5682 94.8811 53.3583C95.241 53.1409 95.5221 52.8336 95.7245 52.4363C95.9269 52.0389 96.0281 51.5779 96.0281 51.0532C96.0281 50.5284 95.9269 50.0712 95.7245 49.6813C95.5221 49.284 95.241 48.9804 94.8811 48.7705C94.5213 48.5606 94.1053 48.4557 93.633 48.4557C93.1607 48.4557 92.7409 48.5606 92.3736 48.7705C92.0138 48.9804 91.7327 49.284 91.5303 49.6813C91.3279 50.0712 91.2267 50.5284 91.2267 51.0532C91.2267 51.5779 91.3279 52.0389 91.5303 52.4363C91.7327 52.8336 92.0138 53.1409 92.3736 53.3583C92.7409 53.5682 93.1607 53.6731 93.633 53.6731ZM108.781 49.5127C108.601 49.1828 108.354 48.9317 108.039 48.7593C107.724 48.5869 107.357 48.5007 106.937 48.5007C106.472 48.5007 106.06 48.6056 105.7 48.8155C105.34 49.0254 105.059 49.3253 104.857 49.7151C104.654 50.1049 104.553 50.5547 104.553 51.0644C104.553 51.5892 104.654 52.0464 104.857 52.4363C105.067 52.8261 105.355 53.1259 105.723 53.3358C106.09 53.5457 106.517 53.6507 107.004 53.6507C107.604 53.6507 108.095 53.4932 108.478 53.1784C108.86 52.856 109.111 52.41 109.231 51.8403H106.532V50.6371H110.783V52.009C110.678 52.5562 110.453 53.0622 110.108 53.527C109.763 53.9917 109.317 54.3666 108.77 54.6514C108.23 54.9288 107.623 55.0675 106.948 55.0675C106.191 55.0675 105.505 54.8988 104.891 54.5615C104.283 54.2166 103.804 53.7406 103.451 53.1334C103.106 52.5262 102.934 51.8365 102.934 51.0644C102.934 50.2923 103.106 49.6026 103.451 48.9954C103.804 48.3807 104.283 47.9047 104.891 47.5674C105.505 47.2225 106.187 47.0501 106.937 47.0501C107.822 47.0501 108.59 47.2675 109.242 47.7023C109.894 48.1296 110.344 48.7331 110.591 49.5127H108.781ZM118.019 47.1513V55H116.445V47.1513H118.019ZM125.647 48.422V50.3898H128.289V51.6379H125.647V53.7181H128.627V55H124.073V47.1401H128.627V48.422H125.647ZM137.265 55.0787C136.718 55.0787 136.223 54.985 135.781 54.7976C135.346 54.6102 135.001 54.3403 134.746 53.988C134.491 53.6357 134.36 53.2196 134.353 52.7399H136.039C136.062 53.0622 136.174 53.3171 136.377 53.5045C136.586 53.6919 136.871 53.7856 137.231 53.7856C137.598 53.7856 137.887 53.6994 138.097 53.527C138.307 53.3471 138.412 53.1147 138.412 52.8298C138.412 52.5974 138.341 52.4063 138.198 52.2563C138.056 52.1064 137.876 51.9902 137.658 51.9078C137.449 51.8178 137.156 51.7204 136.781 51.6154C136.272 51.4655 135.856 51.3193 135.533 51.1769C135.218 51.0269 134.945 50.8058 134.712 50.5134C134.487 50.2136 134.375 49.8163 134.375 49.3215C134.375 48.8567 134.491 48.4519 134.724 48.1071C134.956 47.7623 135.282 47.4999 135.702 47.32C136.122 47.1326 136.601 47.0389 137.141 47.0389C137.951 47.0389 138.607 47.2375 139.109 47.6348C139.619 48.0247 139.9 48.5719 139.952 49.2765H138.221C138.206 49.0067 138.089 48.7855 137.872 48.6131C137.662 48.4332 137.381 48.3433 137.029 48.3433C136.721 48.3433 136.474 48.422 136.287 48.5794C136.107 48.7368 136.017 48.9654 136.017 49.2653C136.017 49.4752 136.084 49.6514 136.219 49.7938C136.362 49.9287 136.534 50.0412 136.736 50.1311C136.946 50.2136 137.239 50.311 137.613 50.4235C138.123 50.5734 138.539 50.7233 138.862 50.8733C139.184 51.0232 139.461 51.2481 139.694 51.5479C139.926 51.8478 140.042 52.2413 140.042 52.7286C140.042 53.1484 139.934 53.5382 139.716 53.898C139.499 54.2579 139.18 54.5465 138.76 54.7639C138.341 54.9738 137.842 55.0787 137.265 55.0787Z" fill="#111111"/>
</svg>
